<mxfile host="app.diagrams.net" modified="2023-06-01T04:10:11.224Z" agent="Mozilla/5.0 (Macintosh; Intel Mac OS X 10_15_7) AppleWebKit/605.1.15 (KHTML, like Gecko) Version/16.3 Mobile/15E148 Safari/604.1" version="21.3.6" etag="uYTexk3ayvCRPWNEiQDB" type="github">
  <diagram name="Page-1" id="yyTUuzdpYKDOj5kIz5jn">
    <mxGraphModel>
      <root>
        <mxCell id="0" />
        <mxCell id="1" parent="0" />
      </root>
    </mxGraphModel>
  </diagram>
</mxfile>
